<svg xmlns="http://www.w3.org/2000/svg" width="24" height="23.96" viewBox="0 0 24 23.96">
  <g id="Layer_2" data-name="Layer 2" transform="translate(0.001 -0.012)">
    <g id="Layer_1" data-name="Layer 1">
      <path id="Path_4834" data-name="Path 4834" d="M19.715,5.9a.465.465,0,0,1-.465.465.457.457,0,0,1-.465-.465V5.058h-.854a.465.465,0,1,1,0-.929h1.311a.465.465,0,0,1,.465.465Z" fill="#ff5f1f"/>
      <path id="Path_4835" data-name="Path 4835" d="M23.529,11.038l-1.109-1.1a1.566,1.566,0,0,0-1.154-.465,1.394,1.394,0,0,0-.854.352l-.367-1.3c1.858-2.248,2.8-4.361,2.847-6.407a1.027,1.027,0,0,0-1.019-1.019,10.615,10.615,0,0,0-6.407,2.84l-1.3-.36a1.386,1.386,0,0,0,.345-.854,1.5,1.5,0,0,0-.465-1.154L12.948.457A1.5,1.5,0,0,0,10.88.4L9.127,2.158,3.642.614a3.065,3.065,0,0,0-2.248.24L.24,1.5A.457.457,0,0,0,0,1.843a.48.48,0,0,0,.135.36l.052.045L5.313,5.995l-.54.532a1.813,1.813,0,0,0,.082,2.555A1.821,1.821,0,0,0,7.3,9.277l1.146-.944,1.641,1.5c-.862,1.139-1.708,2.338-2.54,3.567L2.578,11.15a.465.465,0,0,0-.51.09L.622,12.634a.45.45,0,0,0,0,.644l4.249,4.249c-.517.839-2.473,4.061-2.473,4.061l4.061-2.473,4.249,4.241a.45.45,0,0,0,.644,0L12.8,21.91a.472.472,0,0,0,.09-.51l-2.248-4.968q1.843-1.251,3.567-2.548l1.5,1.641-.944,1.154A1.873,1.873,0,0,0,17.5,19.205l.54-.54,3.747,5.118.052.052a.48.48,0,0,0,.36.135.45.45,0,0,0,.36-.232l.629-1.169a3,3,0,0,0,.232-2.248l-1.536-5.478,1.761-1.753A1.5,1.5,0,0,0,23.529,11.038Zm-12-9.989a.54.54,0,0,1,.749.052l1.1,1.1a.629.629,0,0,1,.187.472.4.4,0,0,1-.165.33l-.322.27-3-.839ZM6.744,8.55A.914.914,0,0,1,5.53,8.415a.892.892,0,0,1-.082-1.259l.629-.637,1.671,1.2ZM8.73,7.343l-7.411-5.4.517-.277A2.083,2.083,0,0,1,3.409,1.5l11.24,3.155c-.517.472-1.034.974-1.566,1.536-.824.884-1.649,1.858-2.45,2.892ZM1.589,12.956l.9-.9,4.541,2.091c-.562.862-1.124,1.723-1.664,2.585ZM11.929,21.5l-.9.9L7.284,18.651c.862-.547,1.723-1.1,2.585-1.671ZM5.11,18.876A78.007,78.007,0,0,1,13.758,6.819C16.793,3.589,19.4,2.061,21.9,2l.075.082c-.052,2.5-1.626,5.163-4.811,8.138A79.912,79.912,0,0,1,5.11,18.876Zm11.72-.307a.892.892,0,0,1-1.259-.082.922.922,0,0,1-.135-1.251l.832-.989,1.2,1.656Zm5.65,2.008a2.031,2.031,0,0,1-.157,1.566l-.277.525-5.44-7.456-1.7-1.873c1.034-.8,2.008-1.619,2.892-2.45a17.986,17.986,0,0,0,1.5-1.559Zm.457-8.123-1.386,1.394-.839-3,.27-.33a.382.382,0,0,1,.33-.157.637.637,0,0,1,.465.18l1.109,1.109a.555.555,0,0,1,.052.8Z" fill="#ff5f1f"/>
    </g>
  </g>
</svg>
