<svg id="Layer_2" data-name="Layer 2" xmlns="http://www.w3.org/2000/svg" width="18" height="24" viewBox="0 0 18 24">
  <g id="Layer_1" data-name="Layer 1">
    <path id="Path_4823" data-name="Path 4823" d="M9,5.25a5.25,5.25,0,1,0,5.25,5.25A5.25,5.25,0,0,0,9,5.25ZM9,6a4.5,4.5,0,0,1,4.5,4.5,4.4,4.4,0,0,1-.8,2.535,5.625,5.625,0,0,0-7.417,0h0A4.5,4.5,0,0,1,9,6Zm0,9a4.5,4.5,0,0,1-3.233-1.38,4.86,4.86,0,0,1,6.465,0h0A4.455,4.455,0,0,1,9,15Z" fill="#001738"/>
    <path id="Path_4824" data-name="Path 4824" d="M8.91,10.8a1.312,1.312,0,0,0,1.313-1.313V9.052a1.312,1.312,0,1,0-2.625,0v.435A1.313,1.313,0,0,0,8.91,10.8ZM8.347,9.052a.563.563,0,0,1,1.125,0v.435a.562.562,0,1,1-1.125,0Z" fill="#001738"/>
    <path id="Path_4825" data-name="Path 4825" d="M16.5,1.5H12.75V.75A.75.75,0,0,0,12,0H6a.75.75,0,0,0-.75.75V1.5H1.5A1.5,1.5,0,0,0,0,3V22.5A1.5,1.5,0,0,0,1.5,24h15A1.5,1.5,0,0,0,18,22.5V3A1.5,1.5,0,0,0,16.5,1.5ZM6,.75h6V3H6ZM17.25,22.5a.75.75,0,0,1-.75.75H1.5a.75.75,0,0,1-.75-.75V3a.75.75,0,0,1,.75-.75H5.25V3A.75.75,0,0,0,6,3.75h6A.75.75,0,0,0,12.75,3V2.25H16.5a.75.75,0,0,1,.75.75Z" fill="#001738"/>
    <path id="Path_4826" data-name="Path 4826" d="M13.845,18.27H4.155a.375.375,0,0,1,0-.75h9.69a.375.375,0,0,1,0,.75Z" fill="#001738"/>
    <path id="Path_4827" data-name="Path 4827" d="M12.375,20.52H5.625a.375.375,0,0,1,0-.75h6.75a.375.375,0,1,1,0,.75Z" fill="#001738"/>
  </g>
</svg>
