<svg xmlns="http://www.w3.org/2000/svg" width="23.999" height="24" viewBox="0 0 23.999 24">
  <g id="Layer_2" data-name="Layer 2" transform="translate(0 0.002)">
    <g id="Layer_1" data-name="Layer 1">
      <path id="Path_4828" data-name="Path 4828" d="M23.623,13.6H22.5V10.079a1.882,1.882,0,0,0-1.125-1.717V7.747a1.762,1.762,0,0,0-.262-.922l.945-1.41A.922.922,0,0,0,21.8,4.14L15.914.157A.922.922,0,0,0,14.632.4L12.2,4.027,7.447,1.95a.915.915,0,0,0-.7,0,.937.937,0,0,0-.51.495l-1.5,3.517H3.082A1.957,1.957,0,0,0,1.125,7.9v.532A2.032,2.032,0,0,0,0,10.252v11.7A2.047,2.047,0,0,0,2.047,24h18.4A2.047,2.047,0,0,0,22.5,21.951V19.626h1.125A.375.375,0,0,0,24,19.251V14a.375.375,0,0,0-.375-.4Zm-3-5.857V8.2h-.435L20.6,7.59A1.14,1.14,0,0,1,20.624,7.747ZM15.254.825A.187.187,0,0,1,15.367.75h0a.18.18,0,0,1,.1,0l5.887,3.975a.2.2,0,0,1,.082.15.15.15,0,0,1,0,.1l-2.145,3.2h-.975l1.23-1.8a.375.375,0,0,0-.1-.517.607.607,0,0,1-.172-.832.375.375,0,0,0-.1-.525L16.566,2.752a.352.352,0,0,0-.285-.06.367.367,0,0,0-.24.157.555.555,0,0,1-.367.247.622.622,0,0,1-.457-.1.382.382,0,0,0-.285-.06.4.4,0,0,0-.24.157l-1.05,1.56-.42.63L12.067,7l-.817,1.2H10.3ZM14.1,8.2a.743.743,0,0,1,1.47-.21.66.66,0,0,1,0,.21Zm2.25,0a1.372,1.372,0,0,0,0-.352,1.5,1.5,0,0,0-2.962.352H12.172L13.6,6.082l.7-1.035.84-1.26a1.312,1.312,0,0,0,.682.045,1.35,1.35,0,0,0,.6-.285l2.062,1.4a1.357,1.357,0,0,0,.27,1.275L17.421,8.2ZM6.262,8.2l1.08-2.542a1.3,1.3,0,0,0,.675-.082,1.342,1.342,0,0,0,.54-.382l2.2.967L9.4,8.2ZM5.22,6.7l.322-.75,1.4-3.225a.187.187,0,0,1,.1-.09H7.1a.112.112,0,0,1,.067,0l4.6,2.017-.585.877L8.557,4.38a.375.375,0,0,0-.285,0,.427.427,0,0,0-.21.2.577.577,0,0,1-.315.307.645.645,0,0,1-.472,0,.345.345,0,0,0-.285,0,.367.367,0,0,0-.24.18L5.422,8.2H4.545ZM1.875,7.9A1.207,1.207,0,0,1,3.082,6.7h1.3L3.727,8.2H2.047l-.172.052ZM21.749,21.951a1.3,1.3,0,0,1-1.3,1.3H2.047a1.3,1.3,0,0,1-1.3-1.3v-11.7a1.3,1.3,0,0,1,1.3-1.3H20.624a1.125,1.125,0,0,1,1.125,1.125V13.6h-.81v-.99a1.125,1.125,0,0,0-1.125-1.125H3.375A1.125,1.125,0,0,0,2.25,12.614v8a1.125,1.125,0,0,0,1.125,1.132H19.814a1.125,1.125,0,0,0,1.125-1.125v-1h.81Zm-1.56-9.337v.99H18a3,3,0,0,0,0,6h2.19v.99a.382.382,0,0,1-.375.375H3.375A.375.375,0,0,1,3,20.594V12.614a.375.375,0,0,1,.375-.375H19.814a.382.382,0,0,1,.375.375Zm3.06,6.262H18a2.25,2.25,0,0,1,0-4.5h5.25Z" fill="#ff5f1f"/>
      <path id="Path_4829" data-name="Path 4829" d="M16.851,16.619a1.5,1.5,0,1,0,1.5-1.5A1.5,1.5,0,0,0,16.851,16.619Zm1.5-.75a.311.311,0,1,1,0-.008Z" fill="#ff5f1f"/>
    </g>
  </g>
</svg>
