<svg id="Layer_2" data-name="Layer 2" xmlns="http://www.w3.org/2000/svg" width="24" height="24" viewBox="0 0 24 24">
  <g id="Layer_1" data-name="Layer 1">
    <path id="Path_4813" data-name="Path 4813" d="M22.875,24H1.125A1.125,1.125,0,0,1,0,22.875V1.125A1.125,1.125,0,0,1,1.125,0h21.75A1.125,1.125,0,0,1,24,1.125v21.75A1.125,1.125,0,0,1,22.875,24ZM1.125.75a.375.375,0,0,0-.375.375v21.75a.375.375,0,0,0,.375.375h21.75a.375.375,0,0,0,.375-.375V1.125A.375.375,0,0,0,22.875.75Z" fill="#ff5f1f"/>
    <rect id="Rectangle_7625" data-name="Rectangle 7625" width="23.25" height="0.75" transform="translate(0.375 4.5)" fill="#ff5f1f"/>
    <path id="Path_4814" data-name="Path 4814" d="M3.21,3.577A1.125,1.125,0,1,1,4.335,2.452,1.125,1.125,0,0,1,3.21,3.577Zm0-1.5a.375.375,0,1,0,.375.375A.375.375,0,0,0,3.21,2.077Z" fill="#ff5f1f"/>
    <path id="Path_4815" data-name="Path 4815" d="M6.465,3.577A1.125,1.125,0,1,1,7.59,2.452,1.125,1.125,0,0,1,6.465,3.577Zm0-1.5a.375.375,0,1,0,.375.375A.375.375,0,0,0,6.465,2.077Z" fill="#ff5f1f"/>
    <path id="Path_4816" data-name="Path 4816" d="M9.75,3.577a1.125,1.125,0,1,1,1.125-1.125A1.125,1.125,0,0,1,9.75,3.577Zm0-1.5a.375.375,0,1,0,.375.375A.375.375,0,0,0,9.75,2.077Z" fill="#ff5f1f"/>
    <path id="Path_4817" data-name="Path 4817" d="M6.983,12.983H2.767a.525.525,0,0,1-.518-.525V8.25a.517.517,0,0,1,.517-.517H6.983A.518.518,0,0,1,7.5,8.25v4.208a.525.525,0,0,1-.518.525ZM3,12.233H6.75V8.483H3Z" fill="#ff5f1f"/>
    <path id="Path_4818" data-name="Path 4818" d="M21.233,12.983H17.017a.525.525,0,0,1-.518-.525V8.25a.518.518,0,0,1,.517-.517h4.215a.518.518,0,0,1,.517.517v4.208a.525.525,0,0,1-.518.525Zm-3.983-.75H21V8.483H17.25Z" fill="#ff5f1f"/>
    <path id="Path_4819" data-name="Path 4819" d="M14.108,12.983H9.892a.525.525,0,0,1-.517-.525V8.25a.517.517,0,0,1,.517-.517h4.215a.518.518,0,0,1,.517.517v4.208a.525.525,0,0,1-.518.525Zm-3.983-.75h3.75V8.483h-3.75Z" fill="#ff5f1f"/>
    <path id="Path_4820" data-name="Path 4820" d="M6.983,19.958H2.767a.518.518,0,0,1-.518-.518V15.225a.518.518,0,0,1,.517-.518H6.983a.518.518,0,0,1,.517.518V19.44a.517.517,0,0,1-.517.517ZM3,19.208H6.75v-3.75H3Z" fill="#ff5f1f"/>
    <path id="Path_4821" data-name="Path 4821" d="M21.233,19.958H17.017a.518.518,0,0,1-.517-.518V15.225a.518.518,0,0,1,.517-.518h4.215a.518.518,0,0,1,.517.518V19.44a.518.518,0,0,1-.518.517Zm-3.983-.75H21v-3.75H17.25Z" fill="#ff5f1f"/>
    <path id="Path_4822" data-name="Path 4822" d="M14.108,19.958H9.892a.518.518,0,0,1-.517-.518V15.225a.518.518,0,0,1,.517-.518h4.215a.518.518,0,0,1,.517.518V19.44a.517.517,0,0,1-.517.517Zm-3.983-.75h3.75v-3.75h-3.75Z" fill="#ff5f1f"/>
  </g>
</svg>
