<svg id="Layer_2" data-name="Layer 2" xmlns="http://www.w3.org/2000/svg" width="24" height="24" viewBox="0 0 24 24">
  <g id="Layer_1" data-name="Layer 1">
    <path id="Path_4830" data-name="Path 4830" d="M24,16.86a7.118,7.118,0,0,0-2.168-5.115V2.82a1.125,1.125,0,0,0-1.125-1.125H18.825v-.57a1.133,1.133,0,0,0-2.25,0v.57h-2.25v-.57a1.125,1.125,0,1,0-2.25,0v.57H9.825v-.57a1.133,1.133,0,0,0-2.25,0v.57H5.25v-.57a1.125,1.125,0,1,0-2.25,0v.57H1.125A1.125,1.125,0,0,0,0,2.82V20.46a1.125,1.125,0,0,0,1.125,1.125H11.483A7.2,7.2,0,0,0,16.793,24h.06A7.155,7.155,0,0,0,24,16.86ZM17.318,1.11a.382.382,0,0,1,.75,0V4.86a.383.383,0,1,1-.75,0Zm-3,1.32h2.25v.75h-2.25Zm-1.5,1.5v-2.8a.375.375,0,0,1,.75,0v3.75a.375.375,0,0,1-.75,0Zm-3-1.463h2.25v.75H9.818ZM8.25,1.125a.382.382,0,0,1,.75,0v3.75a.383.383,0,0,1-.375.383h0a.383.383,0,0,1-.375-.383Zm-3,1.32H7.5V3.2H5.25Zm-1.5,1.5V1.125a.375.375,0,0,1,.75,0v3.75a.375.375,0,0,1-.75,0ZM4.14,6A1.133,1.133,0,0,0,5.25,4.882V3.908H7.5v.975a1.133,1.133,0,1,0,2.25,0V3.908H12v.975a1.125,1.125,0,0,0,2.25,0V3.908H16.5v.975a1.132,1.132,0,1,0,2.25,0V3.908h.75v3H2.25v-3H3v.975A1.133,1.133,0,0,0,4.14,6Zm-3,14.82a.375.375,0,0,1-.375-.375V2.82a.375.375,0,0,1,.375-.375H3V3.2H2.25a.75.75,0,0,0-.75.75v3a.75.75,0,0,0,.75.75H19.575a.75.75,0,0,0,.75-.75v-3a.75.75,0,0,0-.75-.75h-.75v-.75h1.882a.375.375,0,0,1,.375.375v8.25a7.147,7.147,0,0,0-10.177,9.75Zm9.36-3.57h1.86a.383.383,0,0,0,.375-.375.375.375,0,0,0-.375-.375H10.5a6.368,6.368,0,0,1,1.628-3.9l.51.5a.371.371,0,1,0,.525-.525l-.495-.5A6.315,6.315,0,0,1,16.5,10.5v1.86a.375.375,0,0,0,.75,0V10.5a6.322,6.322,0,0,1,3.9,1.628l-.48.48a.379.379,0,0,0,.262.645.382.382,0,0,0,.27-.112l.48-.48A6.405,6.405,0,0,1,23.25,16.5h-1.9a.375.375,0,0,0,0,.75h1.9a6.375,6.375,0,0,1-1.612,3.87l-.48-.472a.374.374,0,0,0-.532.525l.48.48a6.4,6.4,0,0,1-3.9,1.6V21.382a.375.375,0,0,0-.75,0V23.25a6.4,6.4,0,0,1-3.862-1.6l.5-.5a.383.383,0,0,0,0-.533.375.375,0,0,0-.532,0l-.5.495A6.315,6.315,0,0,1,10.5,17.25Z" fill="#ff5f1f"/>
    <path id="Path_4831" data-name="Path 4831" d="M6.165,9.172H3.637a.615.615,0,0,0-.615.615v2.527a.615.615,0,0,0,.615.615H6.165a.615.615,0,0,0,.585-.615V9.788A.608.608,0,0,0,6.165,9.172Zm-.135,3H3.75V9.922H6Z" fill="#ff5f1f"/>
    <path id="Path_4832" data-name="Path 4832" d="M6.165,15.405H3.637a.615.615,0,0,0-.615.615v2.528a.615.615,0,0,0,.615.615H6.165a.615.615,0,0,0,.585-.615V16.02a.615.615,0,0,0-.585-.615Zm-.135,3H3.75v-2.25H6Z" fill="#ff5f1f"/>
    <path id="Path_4833" data-name="Path 4833" d="M13.77,15.825l1.98,1.118a1.125,1.125,0,1,0,2.04-.75L19.155,13.8a.368.368,0,0,0-.142-.51.375.375,0,0,0-.51.135L17.138,15.75a1.125,1.125,0,0,0-1.2.427l-1.8-1.028a.375.375,0,1,0-.368.653Zm2.73.847a.376.376,0,1,1,.142.51.368.368,0,0,1-.143-.51Z" fill="#ff5f1f"/>
  </g>
</svg>
